<svg xmlns="http://www.w3.org/2000/svg" viewBox="0 0 1256 420" xmlns:c2pa="http://c2pa.org/manifest"><metadata><c2pa:manifest>AAAWgmp1bWIAAAAeanVtZGMycGEAEQAQgAAAqgA4m3EDYzJwYQAAABZcanVtYgAAAEdqdW1kYzJtYQARABCAAACqADibcQN1cm46YzJwYToxYWY3Mjk0YS03YmEwLTRjMDktODUyMi02ZWYxZjVlMWNlZWEAAAADl2p1bWIAAAApanVtZGMyYXMAEQAQgAAAqgA4m3EDYzJwYS5hc3NlcnRpb25zAAAAALxqdW1iAAAARGp1bWRjYm9yABEAEIAAAKoAOJtxE2MycGEuaW5ncmVkaWVudC52MwAAAAAYYzJzaAZHmd/qaJdhXEOP6SniIFoAAABwY2JvcqNpZGM6Zm9ybWF0bWltYWdlL3N2Zyt4bWxqaW5zdGFuY2VJRHgseG1wOmlpZDpkM2QxODk3Ni1mODM3LTQyYWMtOTZmMC1jNDY3NzM2YjRkYmRscmVsYXRpb25zaGlwaHBhcmVudE9mAAAB4mp1bWIAAABBanVtZGNib3IAEQAQgAAAqgA4m3ETYzJwYS5hY3Rpb25zLnYyAAAAABhjMnNoSAMYGvRWwzTqXP9HzkRCpwAAAZljYm9yomdhY3Rpb25zgqJmYWN0aW9ua2MycGEub3BlbmVkanBhcmFtZXRlcnOha2luZ3JlZGllbnRzgaJjdXJseC1zZWxmI2p1bWJmPWMycGEuYXNzZXJ0aW9ucy9jMnBhLmluZ3JlZGllbnQudjNkaGFzaFggAhOdT/TSjOA7+Kkh+mE5cNxb2ykuG4REGSUT/CE05vOkZmFjdGlvbngdY29tLmFudGhyb3BpYy5jbGF1ZGUucHJvdmlkZWRqcGFyYW1ldGVyc6F4H2NvbS5hbnRocm9waWMub3JpZ2luLWNvbmZpZGVuY2VndW5rbm93bmtkZXNjcmlwdGlvbnhmQ2xhdWRlIHByb3ZpZGVkIHRoaXMgZmlsZSBhdCB0aGUgcmVxdWVzdCBvZiBhIHVzZXIgYW5kIG1heSBoYXZlIGNyZWF0ZWQgb3IgbW9kaWZpZWQgdGhlIGZpbGUgY29udGVudHMubXNvZnR3YXJlQWdlbnShZG5hbWVmQ2xhdWRlcmFsbEFjdGlvbnNJbmNsdWRlZPUAAADIanVtYgAAAEBqdW1kY2JvcgARABCAAACqADibcRNjMnBhLmhhc2guZGF0YQAAAAAYYzJzaC7IuHOkYQ8SgoTj+v1H/nUAAACAY2JvcqVjYWxnZnNoYTI1NmNwYWRNAAAAAAAAAAAAAAAAAGRoYXNoWCCEoLH9fBrTZXqJooobVJIsgTFCuewYiFfgYW4azs4xxmRuYW1lbmp1bWJmIG1hbmlmZXN0amV4Y2x1c2lvbnOBomVzdGFydBh+Zmxlbmd0aBkeBAAAAj5qdW1iAAAAJ2p1bWRjMmNsABEAEIAAAKoAOJtxA2MycGEuY2xhaW0udjIAAAACD2Nib3KlY2FsZ2ZzaGEyNTZpc2lnbmF0dXJleE1zZWxmI2p1bWJmPS9jMnBhL3VybjpjMnBhOjFhZjcyOTRhLTdiYTAtNGMwOS04NTIyLTZlZjFmNWUxY2VlYS9jMnBhLnNpZ25hdHVyZWppbnN0YW5jZUlEeCx4bXA6aWlkOjY0MjgwM2E4LWRiNDEtNDczMi05NzA1LTNlMmI0YWY0YTY1ZHJjcmVhdGVkX2Fzc2VydGlvbnODomN1cmx4LXNlbGYjanVtYmY9YzJwYS5hc3NlcnRpb25zL2MycGEuaW5ncmVkaWVudC52M2RoYXNoWCACE51P9NKM4Dv4qSH6YTlw3FvbKS4bhEQZJRP8ITTm86JjdXJseCpzZWxmI2p1bWJmPWMycGEuYXNzZXJ0aW9ucy9jMnBhLmFjdGlvbnMudjJkaGFzaFggBtWOdsmmzhXb4K8ZBYnmY/fPVJAV6o27lZRFA6Nkt+uiY3VybHgpc2VsZiNqdW1iZj1jMnBhLmFzc2VydGlvbnMvYzJwYS5oYXNoLmRhdGFkaGFzaFggUnN9cjjjL4VD3nnfRiPVbKLVm1U4SjLcNAjGrZWaYxB0Y2xhaW1fZ2VuZXJhdG9yX2luZm+jZG5hbWVvQW50aHJvcGljIEZpbGVzZ3ZlcnNpb25lMS4wLjBrc3BlY1ZlcnNpb25lMi40LjAAABA4anVtYgAAAChqdW1kYzJjcwARABCAAACqADibcQNjMnBhLnNpZ25hdHVyZQAAABAIY2JvctKEWQISogEmGCFZAgowggIGMIIBjaADAgECAhRA5aAK7sI50L64g/oGQgU9Z1UTADAKBggqhkjOPQQDAzBJMRcwFQYDVQQKEw5BbnRocm9waWMsIFBCQzEuMCwGA1UEAxMlQW50aHJvcGljIENvbnRlbnQgQ3JlZGVudGlhbHMgUm9vdCBDQTAeFw0yNjA4MDcxODQzNTZaFw0yODA4MDYxOTQzNTZaMEQxFzAVBgNVBAoTDkFudGhyb3BpYywgUEJDMSkwJwYDVQQDEyBBbnRocm9waWMgQ2xhdWRlIENvbnRlbnQgU2lnbmluZzBZMBMGByqGSM49AgEGCCqGSM49AwEHA0IABJh6CmvLUBgFFNU0vUKlOVtE6djd17L5SuwX0LemFisBM3dkd/3cyjxFA3Qo5S46fX0/ihY0VZ7mfb9KF703t5OjWDBWMA4GA1UdDwEB/wQEAwIHgDAVBgNVHSUEDjAMBgorBgEEAYPoXgIBMAwGA1UdEwEB/wQCMAAwHwYDVR0jBBgwFoAUzlHiBIFOZFsj+OPEz5o+nMHXXMIwCgYIKoZIzj0EAwMDZwAwZAIwMXMdFJ4BetLLVY7ORuE9noqbbAZOZn/aArXyTwFAZfKrPzxF2vPoJNf1+UCdg1XGAjBwX1zd9WGqYkqmL5SFqw1QySjr1zJfpJM9+1rdDwSPLMOPOjKuiXjoU/pUUeG9RwmhY3BhZFkNngAAAAAAAAAAAAAAAAAAAAAAAAAAAAAAAAAAAAAAAAAAAAAAAAAAAAAAAAAAAAAAAAAAAAAAAAAAAAAAAAAAAAAAAAAAAAAAAAAAAAAAAAAAAAAAAAAAAAAAAAAAAAAAAAAAAAAAAAAAAAAAAAAAAAAAAAAAAAAAAAAAAAAAAAAAAAAAAAAAAAAAAAAAAAAAAAAAAAAAAAAAAAAAAAAAAAAAAAAAAAAAAAAAAAAAAAAAAAAAAAAAAAAAAAAAAAAAAAAAAAAAAAAAAAAAAAAAAAAAAAAAAAAAAAAAAAAAAAAAAAAAAAAAAAAAAAAAAAAAAAAAAAAAAAAAAAAAAAAAAAAAAAAAAAAAAAAAAAAAAAAAAAAAAAAAAAAAAAAAAAAAAAAAAAAAAAAAAAAAAAAAAAAAAAAAAAAAAAAAAAAAAAAAAAAAAAAAAAAAAAAAAAAAAAAAAAAAAAAAAAAAAAAAAAAAAAAAAAAAAAAAAAAAAAAAAAAAAAAAAAAAAAAAAAAAAAAAAAAAAAAAAAAAAAAAAAAAAAAAAAAAAAAAAAAAAAAAAAAAAAAAAAAAAAAAAAAAAAAAAAAAAAAAAAAAAAAAAAAAAAAAAAAAAAAAAAAAAAAAAAAAAAAAAAAAAAAAAAAAAAAAAAAAAAAAAAAAAAAAAAAAAAAAAAAAAAAAAAAAAAAAAAAAAAAAAAAAAAAAAAAAAAAAAAAAAAAAAAAAAAAAAAAAAAAAAAAAAAAAAAAAAAAAAAAAAAAAAAAAAAAAAAAAAAAAAAAAAAAAAAAAAAAAAAAAAAAAAAAAAAAAAAAAAAAAAAAAAAAAAAAAAAAAAAAAAAAAAAAAAAAAAAAAAAAAAAAAAAAAAAAAAAAAAAAAAAAAAAAAAAAAAAAAAAAAAAAAAAAAAAAAAAAAAAAAAAAAAAAAAAAAAAAAAAAAAAAAAAAAAAAAAAAAAAAAAAAAAAAAAAAAAAAAAAAAAAAAAAAAAAAAAAAAAAAAAAAAAAAAAAAAAAAAAAAAAAAAAAAAAAAAAAAAAAAAAAAAAAAAAAAAAAAAAAAAAAAAAAAAAAAAAAAAAAAAAAAAAAAAAAAAAAAAAAAAAAAAAAAAAAAAAAAAAAAAAAAAAAAAAAAAAAAAAAAAAAAAAAAAAAAAAAAAAAAAAAAAAAAAAAAAAAAAAAAAAAAAAAAAAAAAAAAAAAAAAAAAAAAAAAAAAAAAAAAAAAAAAAAAAAAAAAAAAAAAAAAAAAAAAAAAAAAAAAAAAAAAAAAAAAAAAAAAAAAAAAAAAAAAAAAAAAAAAAAAAAAAAAAAAAAAAAAAAAAAAAAAAAAAAAAAAAAAAAAAAAAAAAAAAAAAAAAAAAAAAAAAAAAAAAAAAAAAAAAAAAAAAAAAAAAAAAAAAAAAAAAAAAAAAAAAAAAAAAAAAAAAAAAAAAAAAAAAAAAAAAAAAAAAAAAAAAAAAAAAAAAAAAAAAAAAAAAAAAAAAAAAAAAAAAAAAAAAAAAAAAAAAAAAAAAAAAAAAAAAAAAAAAAAAAAAAAAAAAAAAAAAAAAAAAAAAAAAAAAAAAAAAAAAAAAAAAAAAAAAAAAAAAAAAAAAAAAAAAAAAAAAAAAAAAAAAAAAAAAAAAAAAAAAAAAAAAAAAAAAAAAAAAAAAAAAAAAAAAAAAAAAAAAAAAAAAAAAAAAAAAAAAAAAAAAAAAAAAAAAAAAAAAAAAAAAAAAAAAAAAAAAAAAAAAAAAAAAAAAAAAAAAAAAAAAAAAAAAAAAAAAAAAAAAAAAAAAAAAAAAAAAAAAAAAAAAAAAAAAAAAAAAAAAAAAAAAAAAAAAAAAAAAAAAAAAAAAAAAAAAAAAAAAAAAAAAAAAAAAAAAAAAAAAAAAAAAAAAAAAAAAAAAAAAAAAAAAAAAAAAAAAAAAAAAAAAAAAAAAAAAAAAAAAAAAAAAAAAAAAAAAAAAAAAAAAAAAAAAAAAAAAAAAAAAAAAAAAAAAAAAAAAAAAAAAAAAAAAAAAAAAAAAAAAAAAAAAAAAAAAAAAAAAAAAAAAAAAAAAAAAAAAAAAAAAAAAAAAAAAAAAAAAAAAAAAAAAAAAAAAAAAAAAAAAAAAAAAAAAAAAAAAAAAAAAAAAAAAAAAAAAAAAAAAAAAAAAAAAAAAAAAAAAAAAAAAAAAAAAAAAAAAAAAAAAAAAAAAAAAAAAAAAAAAAAAAAAAAAAAAAAAAAAAAAAAAAAAAAAAAAAAAAAAAAAAAAAAAAAAAAAAAAAAAAAAAAAAAAAAAAAAAAAAAAAAAAAAAAAAAAAAAAAAAAAAAAAAAAAAAAAAAAAAAAAAAAAAAAAAAAAAAAAAAAAAAAAAAAAAAAAAAAAAAAAAAAAAAAAAAAAAAAAAAAAAAAAAAAAAAAAAAAAAAAAAAAAAAAAAAAAAAAAAAAAAAAAAAAAAAAAAAAAAAAAAAAAAAAAAAAAAAAAAAAAAAAAAAAAAAAAAAAAAAAAAAAAAAAAAAAAAAAAAAAAAAAAAAAAAAAAAAAAAAAAAAAAAAAAAAAAAAAAAAAAAAAAAAAAAAAAAAAAAAAAAAAAAAAAAAAAAAAAAAAAAAAAAAAAAAAAAAAAAAAAAAAAAAAAAAAAAAAAAAAAAAAAAAAAAAAAAAAAAAAAAAAAAAAAAAAAAAAAAAAAAAAAAAAAAAAAAAAAAAAAAAAAAAAAAAAAAAAAAAAAAAAAAAAAAAAAAAAAAAAAAAAAAAAAAAAAAAAAAAAAAAAAAAAAAAAAAAAAAAAAAAAAAAAAAAAAAAAAAAAAAAAAAAAAAAAAAAAAAAAAAAAAAAAAAAAAAAAAAAAAAAAAAAAAAAAAAAAAAAAAAAAAAAAAAAAAAAAAAAAAAAAAAAAAAAAAAAAAAAAAAAAAAAAAAAAAAAAAAAAAAAAAAAAAAAAAAAAAAAAAAAAAAAAAAAAAAAAAAAAAAAAAAAAAAAAAAAAAAAAAAAAAAAAAAAAAAAAAAAAAAAAAAAAAAAAAAAAAAAAAAAAAAAAAAAAAAAAAAAAAAAAAAAAAAAAAAAAAAAAAAAAAAAAAAAAAAAAAAAAAAAAAAAAAAAAAAAAAAAAAAAAAAAAAAAAAAAAAAAAAAAAAAAAAAAAAAAAAAAAAAAAAAAAAAAAAAAAAAAAAAAAAAAAAAAAAAAAAAAAAAAAAAAAAAAAAAAAAAAAAAAAAAAAAAAAAAAAAAAAAAAAAAAAAAAAAAAAAAAAAAAAAAAAAAAAAAAAAAAAAAAAAAAAAAAAAAAAAAAAAAAAAAAAAAAAAAAAAAAAAAAAAAAAAAAAAAAAAAAAAAAAAAAAAAAAAAAAAAAAAAAAAAAAAAAAAAAAAAAAAAAAAAAAAAAAAAAAAAAAAAAAAAAAAAAAAAAAAAAAAAAAAAAAAAAAAAAAAAAAAAAAAAAAAAAAAAAAAAAAAAAAAAAAAAAAAAAAAAAAAAAAAAAAAAAAAAAAAAAAAAAAAAAAAAAAAAAAAAAAAAAAAAAAAAAAAAAAAAAAAAAAAAAAAAAAAAAAAAAAAAAAAAAAAAAAAAAAAAAAAAAAAAAAAAAAAAAAAAAAAAAAAAAAAAAAAAAAAAAAAAAAAAAAAAAAAAAAAAAAAAAAAAAAAAAAAAAAAAAAAAAAAAAAAAAAAAAAAAAAAAAAAAAAAAAAAAAAAAAAAAAAAAAAAAAAAAAAAAAAAAAAAAAAAAAAAAAAAAAAAAAAAAAAAAAAAAAAAAAAAAAAAAAAAAAAAAAAAAAAAAAAAAAAAAAAAAAAAAAAAAAAAAAAAAAAAAAAAAAAAAAAAAAAAAAAAAAAAAAAAAAAAAAAAAAAAAAAAAAAAAAAAAAAAAAAAAAAAAAAAAAAAAAAAAAAAAAAAAAAAAAAAAAAAAAAAAAAAAAAAAAAAAAAAAAAAAAAAAAAAAAAAAAAAAAAAAAAAAAAAAAAAAAAAAAAAAAAAAAAAAAAAAAAAAAAAAAAAAAAAAAAAAAAAAAAAAAAAAAAAAAAAAAAAAAAAAAAAAAAAAAAAAAAAAAAAAAAAAAAAAAAAAAAAAAAAAAAAAAAAAAAAAAAAAAAAAAAAAAAAAAAAAAAAAAAAAAAAAAAAAAAAAAAAAAAAAAAAAAAAAAAAAAAAAAAAAAAAAAAAAAAAAAAAAAAAAAAAAAAAAAAAAAAAAAAAAAAAAAAAAAAAAAAAAAAAAAAAAAAAAAAAAAAAAAAAAAAAAAAAAAAAAAAAAAAAAAAAAAAAAAAAAAAAAAAAAAAAAAAAAAAAAAAAAAAAAAAAAAAAAAAAAAAAAAAAAAAAAAAAAAAAAAAAAAAAAAAAAAAAAAAAAAAAAAAAAAAAAAAAAAAAAAAAAAAAAAAAAAAAAAAAAAAAAAAAAAAAAAAAAAAAAAAAAAAAAAAAAAAAAAAAAAAAAAAAAAAAAAAAAAAAAAAAAAAAAAAAAAAAAAAAAAAAAAAAAAAAAAAAAAAAAAAAAAAAAAAAAAAAAAAAAAAAAAAAAAAAAAAAAAAAAAAAAAAAAAAAAAAAAAAAAAAAAAAAAAAAAAAAAAAAAAAAAAAAAAAAAAAAAAAAAAAAAAAAAAAAAAAAAAAAAAAAAAAAAAAAAAAAAAAAAAAAAAAAAAAAAAAAAAAAAAAAAAAAAAAAAAAAAAAAAAAAAAAAAAAAAAAAAAAAAAAAAAAAAAAAAAAAAAAAAAPZYQEh5P3auJ0Ky312nB/WFxgp6d5pC/FqkPzdzVhXVlX8B0t2WbeysZ39ZKh530quhhDW7zQQOgJ2wv5pVjzWuaIU=</c2pa:manifest></metadata><path fill="#A8432E" fill-rule="evenodd" d="M29.1 412.8C12.2 410.4 2.3 398.6 7.6 387.4C9.4 383.6 23.7 368.5 29.3 364.5C30.8 363.4 33.5 361.4 35.3 360.0C41.5 355.0 64.7 339.0 65.7 339.0C65.9 339.0 67.6 337.9 69.4 336.5C71.2 335.1 73.1 334.0 73.7 334.0C74.2 334.0 75.5 333.1 76.5 332.0C77.5 330.9 78.7 330.0 79.1 330.0C79.5 330.0 86.8 325.9 95.2 320.9C103.6 315.9 114.3 309.7 119.0 307.2C123.7 304.6 130.2 301.1 133.5 299.4C136.8 297.6 143.5 294.0 148.4 291.4C153.4 288.9 158.1 286.4 158.9 285.9C162.8 283.8 205.7 263.0 206.3 263.0C206.6 263.0 211.7 260.7 217.7 257.9C229.7 252.3 231.8 251.3 240.5 247.4C243.8 246.0 253.9 241.4 263.0 237.3C272.1 233.1 283.6 228.1 288.5 226.0C293.4 224.0 302.4 220.1 308.5 217.3C314.6 214.6 320.7 211.8 322.2 211.2C323.9 210.5 325.0 209.1 325.5 207.0C325.9 205.2 328.2 197.9 330.7 190.6C333.1 183.4 335.9 174.8 337.0 171.5C338.0 168.2 341.3 158.5 344.3 149.9C347.3 141.3 350.0 133.2 350.3 131.9C351.0 128.4 355.6 115.7 357.1 112.8C357.6 111.8 358.0 110.3 358.0 109.4C358.0 108.5 358.6 106.6 359.4 105.2C360.2 103.7 361.7 99.8 362.6 96.5C363.6 93.2 366.3 85.6 368.7 79.6C371.1 73.6 373.0 68.3 373.0 67.8C373.0 67.3 374.6 63.8 376.5 59.8L380.0 52.7L376.8 53.4C375.0 53.8 366.5 55.2 358.0 56.5C324.4 61.9 299.1 67.7 266.5 77.5C252.6 81.6 239.1 85.1 231.3 86.4C228.2 86.9 225.0 85.2 225.0 83.0C225.0 81.9 230.9 77.3 235.1 75.1C245.1 69.8 257.3 64.0 262.5 62.0C265.8 60.7 269.9 59.1 271.5 58.4C279.4 55.1 310.8 45.9 329.5 41.4C339.2 39.1 378.3 30.8 385.0 29.6C386.4 29.4 390.2 28.7 393.5 28.1C415.7 23.9 467.6 15.6 484.6 13.5C491.7 12.6 500.9 11.5 505.0 10.9C537.2 6.9 571.8 5.6 604.0 7.1C636.4 8.6 661.5 15.0 671.1 24.1C676.8 29.6 678.1 32.5 678.2 39.3C678.4 46.5 676.0 51.0 668.8 58.0C662.8 63.7 631.6 84.4 617.5 92.0C613.1 94.4 606.4 98.2 602.5 100.5C578.6 114.7 513.5 147.3 487.5 158.0C482.6 160.1 475.8 162.9 472.5 164.4C469.2 165.9 461.3 169.2 455.0 171.6C448.7 174.1 438.1 178.3 431.5 181.0C424.9 183.6 415.0 187.5 409.5 189.5C399.5 193.2 373.9 203.8 358.2 210.7C353.7 212.7 350.0 214.7 350.0 215.2C350.0 215.7 348.4 218.6 346.5 221.6C344.6 224.6 343.0 227.2 343.0 227.4C343.0 229.0 334.5 240.2 332.0 242.0C328.3 244.7 322.1 244.1 320.1 240.9C318.8 238.7 318.3 231.9 319.4 230.1C320.7 228.0 315.6 229.5 304.0 234.7C302.1 235.6 295.3 238.5 289.0 241.3C282.7 244.0 273.9 247.8 269.5 249.7C265.1 251.6 258.6 254.4 255.0 256.0C247.5 259.2 223.0 270.8 215.0 275.0C192.4 286.6 180.3 292.9 173.0 297.0C168.3 299.6 162.2 303.0 159.5 304.5C156.8 306.1 152.0 308.9 149.0 310.9C146.0 312.9 143.1 314.7 142.5 315.0C141.9 315.3 140.4 316.2 139.0 317.1C137.6 318.0 131.1 322.2 124.5 326.5C104.6 339.3 89.0 350.4 74.0 362.4C62.9 371.3 60.0 374.1 57.9 378.2L56.0 381.9L58.7 383.7C64.2 387.3 108.4 385.0 148.0 379.0C151.6 378.5 157.0 377.8 160.0 377.5C163.0 377.1 166.2 376.7 167.0 376.5C167.8 376.3 179.1 374.3 192.0 372.0C204.9 369.8 220.9 366.9 227.5 365.5C234.1 364.1 246.5 361.6 255.0 360.0C263.5 358.3 273.4 356.2 277.0 355.4C280.6 354.6 286.6 353.2 290.3 352.5C294.1 351.7 298.6 350.6 300.3 350.1C302.1 349.5 313.6 346.8 326.0 344.0C338.4 341.2 353.9 337.6 360.5 336.1C372.0 333.3 381.4 331.1 412.5 324.0C420.2 322.3 428.5 320.2 431.0 319.5C433.5 318.7 444.1 316.2 454.5 313.9C475.1 309.5 481.2 308.1 505.5 302.4C514.3 300.4 524.0 298.2 527.0 297.5C533.9 295.9 576.6 286.7 592.3 283.5C598.8 282.1 609.4 279.9 615.8 278.5C622.2 277.1 629.8 275.6 632.5 275.0C635.2 274.5 643.8 272.7 651.5 271.1C659.2 269.4 674.7 266.2 686.0 264.0C697.3 261.7 714.1 258.3 723.5 256.4C740.1 252.9 754.3 250.3 770.5 247.5C791.7 243.8 826.9 237.2 836.5 235.0C838.7 234.5 844.8 233.4 850.0 232.6C855.2 231.7 860.6 230.8 862.0 230.5C864.5 230.0 874.3 228.4 883.0 227.1C885.5 226.7 888.0 226.1 888.6 225.8C889.2 225.4 895.7 224.2 903.1 223.0C927.6 219.3 971.9 211.8 1012.5 204.5C1016.9 203.7 1025.2 202.4 1031.0 201.5C1036.8 200.6 1046.5 199.0 1052.5 198.0C1076.5 193.7 1117.6 187.1 1139.5 184.0C1175.2 179.0 1195.5 176.5 1210.5 175.5C1215.5 175.1 1220.2 174.7 1221.0 174.5C1225.1 173.5 1247.7 173.0 1249.0 173.9C1250.3 174.8 1250.3 175.0 1249.0 175.4C1242.0 177.9 1197.0 187.4 1173.0 191.5C1167.8 192.4 1157.0 194.4 1149.0 196.1C1127.0 200.6 1100.4 205.7 1081.5 209.0C1063.9 212.0 1037.1 217.3 1031.0 218.9C1029.1 219.5 1024.3 220.6 1020.5 221.4C1016.6 222.3 1008.5 224.1 1002.5 225.5C985.6 229.3 983.3 229.8 971.0 232.0C959.2 234.0 954.4 235.0 926.5 241.4C917.7 243.4 906.0 245.9 900.5 246.9C889.5 248.9 870.6 252.6 850.5 256.7C843.4 258.2 835.2 259.6 832.5 260.0C829.8 260.4 825.5 261.2 823.0 261.8C820.5 262.4 814.5 263.6 809.5 264.5C804.5 265.4 798.2 266.8 795.5 267.5C792.8 268.3 787.6 269.4 784.0 270.0C768.6 272.7 761.2 274.2 750.2 276.9C743.8 278.4 735.6 280.3 732.0 280.9C728.4 281.6 718.5 283.6 710.0 285.5C695.4 288.7 677.5 292.3 668.5 294.0C659.5 295.7 633.5 301.2 632.8 301.6C632.5 301.8 626.6 303.2 619.9 304.6C613.2 306.0 607.4 307.3 607.1 307.5C606.8 307.7 597.7 309.7 587.0 311.9C576.3 314.2 563.9 317.0 559.5 318.1C555.1 319.2 548.8 320.8 545.5 321.5C520.7 327.0 514.7 328.3 508.5 329.5C501.8 330.8 487.6 334.0 480.0 336.0C478.1 336.5 473.4 337.6 469.5 338.6C465.6 339.5 460.0 340.8 457.0 341.5C440.4 345.5 427.8 348.3 413.0 351.5C403.9 353.5 394.2 355.7 391.3 356.5C382.6 359.0 351.5 366.3 332.0 370.4C325.7 371.8 319.8 373.1 319.0 373.4C317.7 373.9 297.4 378.2 272.0 383.3C263.4 385.1 235.3 390.4 223.5 392.5C214.4 394.1 203.4 395.8 177.5 399.6C167.6 401.0 153.2 403.3 145.5 404.6C102.0 412.3 50.6 415.9 29.1 412.8ZM375.0 188.0C376.4 187.5 381.3 185.5 386.0 183.5C390.7 181.5 399.7 177.8 406.0 175.4C412.3 172.9 420.9 169.3 425.0 167.5C429.1 165.7 433.6 163.8 435.0 163.4C436.4 163.1 440.9 161.2 444.9 159.2C449.0 157.3 454.0 155.2 455.9 154.5C457.9 153.8 466.0 150.3 474.0 146.8C482.0 143.2 490.5 139.5 493.0 138.4C501.8 134.8 551.7 109.2 565.0 101.5C572.4 97.3 580.5 92.6 583.0 91.2C595.3 84.3 621.7 66.7 631.8 58.6C638.0 53.7 644.0 46.1 644.0 43.2C644.0 42.4 642.7 40.6 641.1 39.1C635.2 33.6 613.4 29.4 589.0 29.1C582.2 29.0 576.3 28.7 575.8 28.4C575.0 27.9 566.2 28.5 531.0 31.5C505.8 33.7 488.2 36.0 461.5 40.6C442.3 44.0 422.3 47.2 417.3 47.7L412.1 48.2L412.7 52.9C413.4 58.9 411.9 66.1 406.1 84.0C403.5 92.0 400.6 100.8 399.8 103.5C398.3 108.1 391.9 124.2 388.6 131.5C387.8 133.2 386.2 137.0 385.0 140.0C383.7 143.0 381.7 147.9 380.4 150.8C379.1 153.7 378.0 156.3 378.0 156.6C378.0 157.1 365.9 182.4 362.9 188.1C361.9 190.1 361.0 192.2 361.0 192.8C361.0 193.4 363.6 192.7 366.8 191.3C369.9 189.9 373.6 188.4 375.0 188.0Z"/></svg>